<?xml version="1.0" standalone="no"?>
<!DOCTYPE svg PUBLIC "-//W3C//DTD SVG 20010904//EN"
 "http://www.w3.org/TR/2001/REC-SVG-20010904/DTD/svg10.dtd">
<svg version="1.0" xmlns="http://www.w3.org/2000/svg"
 width="512.000000pt" height="512.000000pt" viewBox="0 0 512.000000 512.000000"
 preserveAspectRatio="xMidYMid meet">

<g transform="translate(0.000000,512.000000) scale(0.100000,-0.100000)"
fill="#000000" stroke="none">
<path d="M832 5105 c-215 -39 -385 -127 -537 -280 -129 -128 -214 -275 -264
-454 l-26 -96 0 -1705 c0 -1629 1 -1709 19 -1785 90 -385 376 -671 761 -761
76 -18 155 -19 1775 -19 1617 0 1699 1 1775 19 381 88 673 380 761 761 18 76
19 158 19 1775 0 1620 -1 1699 -19 1775 -94 404 -405 699 -811 770 -76 13
-302 15 -1734 14 -1315 -1 -1661 -3 -1719 -14z m1083 -1720 c86 -24 173 -66
231 -113 159 -126 107 -331 -81 -320 -49 4 -74 12 -140 51 -98 57 -153 71
-254 65 -138 -8 -261 -82 -345 -206 -67 -100 -90 -175 -90 -302 0 -88 4 -117
26 -177 72 -202 246 -332 444 -333 80 0 139 19 226 71 59 36 81 44 132 47 107
6 176 -53 176 -150 0 -65 -29 -119 -91 -168 -103 -81 -231 -126 -391 -137
-349 -22 -682 179 -829 503 -93 204 -93 483 0 688 117 259 374 454 656 500 59
9 270 -3 330 -19z m795 -5 c21 -11 53 -37 70 -57 17 -21 153 -254 301 -518
149 -264 274 -486 278 -493 5 -9 106 163 287 485 153 273 292 512 307 530 34
39 102 73 147 73 53 0 113 -35 138 -79 l22 -39 0 -710 c0 -479 -3 -720 -11
-739 -32 -85 -148 -135 -236 -102 -31 11 -78 53 -96 84 -8 14 -14 138 -17 403
l-5 383 -194 -366 c-209 -394 -232 -427 -309 -440 -56 -9 -122 21 -159 73 -15
22 -109 193 -208 381 -99 187 -183 341 -187 341 -5 0 -8 -167 -8 -370 0 -409
1 -401 -64 -458 -85 -74 -224 -44 -275 60 -21 44 -21 51 -21 746 0 472 3 710
11 729 34 89 140 128 229 83z"/>
</g>
</svg>
